Coordinates
version=1
nRows=16
nColumns=36
inDegrees=yes

Units are S.I. units (second, meters, Newtons, ...)
If the header above contains a line with 'inDegrees', this indicates whether rotational values are in degrees (yes) or radians (no).

endheader
time	pelvis_tilt	pelvis_list	pelvis_rotation	pelvis_tx	pelvis_ty	pelvis_tz	hip_flexion_r	hip_adduction_r	hip_rotation_r	knee_angle_r	knee_angle_r_beta	ankle_angle_r	subtalar_angle_r	mtp_angle_r	hip_flexion_l	hip_adduction_l	hip_rotation_l	knee_angle_l	knee_angle_l_beta	ankle_angle_l	subtalar_angle_l	mtp_angle_l	lumbar_extension	lumbar_bending	lumbar_rotation	arm_flex_r	arm_add_r	arm_rot_r	elbow_flex_r	pro_sup_r	arm_flex_l	arm_add_l	arm_rot_l	elbow_flex_l	pro_sup_l
      5.80000000	     -5.48876612	      0.30744143	      8.45977832	      1.20812558	      1.02786476	      0.01729349	      2.44661579	     -4.61645513	     -6.62305010	      3.65699764	      0.06382665	     10.89494369	     -7.28660190	     -7.49999987	      1.04528317	    -11.38254185	    -16.88592445	      5.20570038	      0.09085661	      3.99766812	     -0.66772504	     -7.49999987	     -3.49190403	      6.26359688	     -7.75582783	     54.78265601	      3.34779061	     57.80642836	    115.95255787	     92.78727698	     49.17164579	     -0.56462891	     57.97507299	    117.71959460	    106.15427979
      5.81666670	     -5.47886191	      0.33780118	      8.41897929	      1.21779670	      1.02839352	      0.01180369	      2.23148535	     -4.72714922	     -6.68430025	      3.60088451	      0.06284729	     10.90603030	     -7.32269319	     -7.49999987	      0.80743729	    -11.09038072	    -16.86549136	      5.01190763	      0.08747429	      4.26894616	     -0.70590963	     -7.49999987	     -3.42529166	      6.20066978	     -7.82218018	     54.75299765	      3.39167348	     58.00950098	    115.97921217	     92.81957930	     48.90579222	     -0.61316396	     58.10295857	    117.72451319	    106.19208515
      5.83333330	     -5.59240318	      0.38753356	      8.35111540	      1.21313598	      1.02747940	      0.00895208	      2.12955684	     -4.85714405	     -6.73456748	      3.44281631	      0.06008848	     10.87025370	     -7.30346782	     -7.49999987	      0.80519337	    -10.78532549	    -16.80849332	      4.91781418	      0.08583205	      4.33995395	     -0.66192121	     -7.49999987	     -3.33858422	      6.08895969	     -7.69162510	     55.05878078	      3.58208929	     57.97649401	    115.89768167	     92.82976222	     48.98860618	     -0.56032225	     58.03643488	    117.73360650	    106.20227857
      5.85000000	     -5.47535985	      0.48726896	      8.26821124	      1.22282747	      1.02821897	      0.00355015	      1.63871952	     -5.03031462	     -6.82606419	      3.13860181	      0.05477894	     10.68341335	     -7.20410487	     -7.49999987	      0.33876104	    -10.35871621	    -16.76938328	      4.54508674	      0.07932673	      4.56803462	     -0.62189664	     -7.49999987	     -3.28732356	      5.87023917	     -7.45710612	     55.30109450	      3.48829372	     58.01945807	    115.56351680	     92.85733039	     48.45450086	     -0.48834878	     58.10174825	    118.11476227	    106.22611574
      5.86666670	     -5.23950219	      0.56546261	      8.13985315	      1.22758920	      1.02873464	      0.00072866	      0.92359418	     -5.15306682	     -6.92714053	      2.67231496	      0.04664069	     10.36815150	     -7.03959866	     -7.49999987	     -0.35801915	     -9.97664978	    -16.92647247	      4.05359778	      0.07074863	      4.41110638	     -0.53004924	     -7.49999987	     -3.30454949	      5.76912993	     -7.43150132	     55.12089185	      3.57083941	     58.19087251	    115.47915605	     91.53887964	     47.61739914	     -0.63189203	     57.92969704	    118.95665796	    104.74229203
      5.88333330	     -5.06809296	      0.62839190	      8.12500942	      1.22219116	      1.02568317	     -0.00148882	      0.42299119	     -5.28432326	     -7.18732146	      2.40903184	      0.04204554	     10.48417254	     -6.79441734	     -7.49999987	     -0.67874836	     -9.69143877	    -17.00813574	      3.94715126	      0.06889079	      4.78463614	     -0.29827939	     -7.49999987	     -3.36999053	      5.82828958	     -7.85961081	     55.45307163	      3.91016669	     58.49541699	    114.79087528	     92.34995829	     47.05456551	     -1.04253382	     57.34358176	    119.83268316	    105.40047260
      5.90000000	     -5.04170862	      0.67454086	      8.03935626	      1.22232909	      1.02798218	     -0.00188551	      0.15851091	     -5.40946048	     -7.25770747	      2.22066418	      0.03875790	     10.41530725	     -6.80879574	     -7.49999987	     -0.79948641	     -9.41721358	    -16.94094009	      3.85995817	      0.06736898	      5.00622621	     -0.48844272	     -7.49999987	     -3.33058388	      5.71956503	     -7.79737173	     55.51629383	      3.99897200	     58.77820199	    114.78435961	     94.11043346	     46.65807334	     -1.13017986	     56.92828002	    120.28975225	    105.94978485
      5.91666670	     -5.00750299	      0.73742589	      8.01164529	      1.22173603	      1.02534534	     -0.00156539	     -0.12511248	     -5.54613606	     -7.34349663	      1.95909462	      0.03419265	     10.36538999	     -6.78431239	     -7.49999987	     -0.91355280	     -9.17147676	    -16.93494187	      3.79571478	      0.06624772	      5.04355965	     -0.74525775	     -7.49999987	     -3.31177487	      5.47626587	     -7.79597328	     55.66558680	      4.38081776	     58.88390163	    114.56780545	     93.84871439	     46.70328478	     -1.50542472	     56.83459441	    120.64853688	    106.12470946
      5.93333330	     -5.04826938	      0.75409284	      7.94800571	      1.21693047	      1.02446262	     -0.00456696	     -0.19555612	     -5.66330522	     -7.41351029	      1.79941606	      0.03140573	     10.31336916	     -6.79144866	     -7.49999987	     -0.87260811	     -8.99120771	    -17.00802474	      3.79747966	      0.06627852	      5.18772226	     -0.85062134	     -7.49999987	     -3.22190221	      5.28494503	     -7.56882252	     55.73279514	      4.71326326	     58.88794617	    114.62131664	     93.84631766	     46.83176205	     -1.62871680	     56.79930532	    120.65856763	    106.13172527
      5.95000000	     -5.01538043	      0.77747185	      7.85634471	      1.22102679	      1.02482818	     -0.00696795	     -0.34207952	     -5.77732999	     -7.50619080	      1.65181069	      0.02882954	     10.18274198	     -6.77834169	     -7.49999987	     -0.98059317	     -8.80242957	    -17.07967130	      3.74734891	      0.06540358	      5.38591389	     -0.98359127	     -7.49999987	     -3.18388762	      5.06155863	     -7.34733934	     55.50644513	      5.23226395	     59.02447347	    114.72476516	     93.84047784	     46.83841562	     -1.87244300	     56.82013912	    120.60483298	    106.14204104
      5.96666670	     -4.98596878	      0.70499693	      7.72591363	      1.21632650	      1.02172205	     -0.00960363	     -0.43452015	     -5.77891029	     -7.58497836	      1.51948740	      0.02652006	     10.11810820	     -6.77886606	     -7.49999987	     -1.09005379	     -8.73375892	    -17.12059510	      3.68382711	      0.06429491	      5.47617583	     -1.04906915	     -7.49999987	     -2.97906601	      4.83298102	     -7.24737906	     55.52393150	      5.48550996	     59.00769095	    114.71222926	     93.84333542	     46.90737023	     -1.89635654	     56.82118960	    120.66947765	    106.16383171
      5.98333330	     -4.84665548	      0.83996404	      7.66978479	      1.21534309	      1.01952633	     -0.00971651	     -0.64193948	     -6.01214870	     -7.80929005	      1.43323965	      0.02501475	      9.86735223	     -6.67542692	     -7.49999987	     -1.29856328	     -8.45582592	    -17.13150012	      3.60846006	      0.06297951	      5.62601403	     -1.38064544	     -7.49999987	     -3.01315665	      4.67369216	     -7.87611109	     55.77092130	      6.98765069	     58.90960524	    113.27994992	     92.91600097	     46.92478061	     -3.08312866	     56.93619938	    122.39966305	    105.71520211
      6.00000000	     -4.89209830	      0.91650016	      7.61936533	      1.20563191	      1.02120224	     -0.01542530	     -0.53725953	     -6.23325076	     -7.93229784	      1.42456152	      0.02486329	      9.79593043	     -6.72788430	     -7.49999987	     -1.15847644	     -8.22444669	    -17.26078144	      3.65062350	      0.06371540	      5.86492864	     -1.52583765	     -7.49999987	     -3.06921975	      4.36923766	     -7.82296049	     56.09990547	      6.90488115	     58.73153751	    113.19676134	     92.89702077	     47.30366523	     -3.42519862	     56.90690997	    122.52590462	    105.72752298
      6.01666670	     -4.75140921	      0.98809111	      7.65984383	      1.20502429	      1.01947347	     -0.01532362	     -0.62495988	     -6.41169751	     -7.95655695	      1.44958830	      0.02530009	      9.70311224	     -7.03675686	     -7.49999987	     -1.18609284	     -8.03918664	    -17.29875214	      3.71145640	      0.06477713	      6.16000028	     -1.63935465	     -7.49999987	     -3.55325100	      4.15470188	     -8.03176815	     56.97760671	      7.34601442	     58.73639097	    112.72889099	     92.29570193	     48.19589830	     -4.25623103	     57.03246630	    122.94610279	    105.44720187
      6.03333330	     -4.74437916	      1.08756452	      7.72594939	      1.19515729	      1.01810244	     -0.02063473	     -0.48083408	     -6.68408357	     -8.16432881	      1.53379045	      0.02676969	      9.68627751	     -7.11981466	     -7.49999987	     -0.97915030	     -7.78955884	    -17.30068834	      3.82918214	      0.06683184	      6.46665245	     -1.85911094	     -7.49999987	     -3.92743744	      3.87990328	     -7.90608310	     57.95039056	      7.39732582	     58.50885682	    112.41264622	     92.24758244	     49.14326542	     -4.47120979	     56.88503700	    122.59129359	    105.48315204
      6.05000000	     -4.79717152	      1.17574898	      7.80509942	      1.18989976	      1.02049461	     -0.02333852	     -0.25403268	     -6.97190464	     -8.32892474	      1.63553653	      0.02854550	      9.54282156	     -7.14615212	     -7.49999987	     -0.72366412	     -7.51915579	    -17.28505364	      3.85983794	      0.06736688	      6.71677722	     -1.95777258	     -7.49999987	     -4.20788121	      3.66635146	     -7.73793486	     58.45782146	      7.56796845	     58.36935234	    112.31979392	     92.22438381	     49.68459866	     -4.73075265	     56.61558407	    122.30563984	    105.47830566
